<?xml version="1.0" encoding="UTF-8" standalone="no"?>
<!DOCTYPE svg PUBLIC "-//W3C//DTD SVG 1.1//EN"
 "http://www.w3.org/Graphics/SVG/1.1/DTD/svg11.dtd">
<!-- Generated by graphviz version 2.36.0 (20140111.2315)
 -->
<!-- Title: G Pages: 1 -->
<svg width="140pt" height="220pt"
 viewBox="0.00 0.00 140.00 220.00" xmlns="http://www.w3.org/2000/svg" xmlns:xlink="http://www.w3.org/1999/xlink">
<g id="graph0" class="graph" transform="scale(1 1) rotate(0) translate(4 216)">
<title>G</title>
<polygon fill="white" stroke="none" points="-4,4 -4,-216 136,-216 136,4 -4,4"/>
<!-- Browser -->
<g id="node1" class="node"><title>Browser</title>
<polygon fill="none" stroke="black" points="98,-212 34,-212 34,-176 98,-176 98,-212"/>
<text text-anchor="middle" x="66" y="-190.3" font-family="Times,serif" font-size="14.00">Browser</text>
</g>
<!-- NR -->
<g id="node2" class="node"><title>NR</title>
<polygon fill="none" stroke="black" points="118,-124 14,-124 14,-88 118,-88 118,-124"/>
<text text-anchor="middle" x="66" y="-102.3" font-family="Times,serif" font-size="14.00">node&#45;red server</text>
</g>
<!-- Browser&#45;&gt;NR -->
<g id="edge1" class="edge"><title>Browser&#45;&gt;NR</title>
<path fill="none" stroke="black" d="M53.109,-175.689C49.8033,-170.297 46.7024,-164.146 45,-158 43.1018,-151.147 43.1018,-148.853 45,-142 45.8246,-139.023 46.9773,-136.045 48.3225,-133.152"/>
<polygon fill="black" stroke="black" points="51.426,-134.771 53.109,-124.311 45.2702,-131.439 51.426,-134.771"/>
<text text-anchor="middle" x="59.5" y="-146.3" font-family="Times,serif" font-size="14.00">1880</text>
</g>
<!-- NR&#45;&gt;Browser -->
<g id="edge2" class="edge"><title>NR&#45;&gt;Browser</title>
<path fill="none" stroke="black" d="M70.7671,-124.314C72.09,-129.912 73.3431,-136.178 74,-142 74.7973,-149.066 74.7973,-150.934 74,-158 73.7126,-160.547 73.3111,-163.179 72.8395,-165.803"/>
<polygon fill="black" stroke="black" points="69.3941,-165.18 70.7671,-175.686 76.2451,-166.617 69.3941,-165.18"/>
</g>
<!-- SC -->
<g id="node3" class="node"><title>SC</title>
<polygon fill="none" stroke="black" points="132.25,-36 -0.25,-36 -0.25,-0 132.25,-0 132.25,-36"/>
<text text-anchor="middle" x="66" y="-14.3" font-family="Times,serif" font-size="14.00">SuperCollider server</text>
</g>
<!-- NR&#45;&gt;SC -->
<g id="edge3" class="edge"><title>NR&#45;&gt;SC</title>
<path fill="none" stroke="black" d="M51.2894,-87.9255C47.5121,-82.54 43.963,-76.3338 42,-70 39.8949,-63.2076 39.8949,-60.7924 42,-54 42.9815,-50.8331 44.3595,-47.6981 45.9643,-44.6817"/>
<polygon fill="black" stroke="black" points="49.0045,-46.4201 51.2894,-36.0745 43.0516,-42.7371 49.0045,-46.4201"/>
<text text-anchor="middle" x="60" y="-58.3" font-family="Times,serif" font-size="14.00">57110</text>
</g>
<!-- SC&#45;&gt;NR -->
<g id="edge4" class="edge"><title>SC&#45;&gt;NR</title>
<path fill="none" stroke="black" stroke-dasharray="1,5" d="M73.1418,-36.1534C75.1257,-41.743 77.0073,-48.044 78,-54 79.1691,-61.0144 79.1691,-62.9856 78,-70 77.5502,-72.6988 76.9179,-75.4685 76.1762,-78.2107"/>
<polygon fill="black" stroke="black" points="72.8071,-77.2571 73.1418,-87.8466 79.4839,-79.3597 72.8071,-77.2571"/>
</g>
</g>
</svg>
