<?xml version="1.0" encoding="UTF-8" standalone="no"?>
<!DOCTYPE svg PUBLIC "-//W3C//DTD SVG 1.1//EN"
 "http://www.w3.org/Graphics/SVG/1.1/DTD/svg11.dtd">
<!-- Generated by graphviz version 2.36.0 (20140111.2315)
 -->
<!-- Title: G Pages: 1 -->
<svg width="332pt" height="243pt"
 viewBox="0.00 0.00 332.00 243.00" xmlns="http://www.w3.org/2000/svg" xmlns:xlink="http://www.w3.org/1999/xlink">
<g id="graph0" class="graph" transform="scale(1 1) rotate(0) translate(4 239)">
<title>G</title>
<polygon fill="white" stroke="none" points="-4,4 -4,-239 328,-239 328,4 -4,4"/>
<g id="clust1" class="cluster"><title>cluster_1</title>
<polygon fill="none" stroke="black" points="8,-8 8,-227 158,-227 158,-8 8,-8"/>
<text text-anchor="middle" x="83" y="-211.8" font-family="Times,serif" font-size="14.00">192.168.0.7</text>
</g>
<g id="clust2" class="cluster"><title>cluster_2</title>
<polygon fill="none" stroke="black" points="166,-8 166,-227 316,-227 316,-8 166,-8"/>
<text text-anchor="middle" x="241" y="-211.8" font-family="Times,serif" font-size="14.00">192.168.0.24</text>
</g>
<!-- Browser_1 -->
<g id="node1" class="node"><title>Browser_1</title>
<polygon fill="none" stroke="black" points="115,-196 51,-196 51,-160 115,-160 115,-196"/>
<text text-anchor="middle" x="83" y="-174.3" font-family="Times,serif" font-size="14.00">Browser</text>
</g>
<!-- NR_1 -->
<g id="node2" class="node"><title>NR_1</title>
<polygon fill="none" stroke="black" points="135,-124 31,-124 31,-88 135,-88 135,-124"/>
<text text-anchor="middle" x="83" y="-102.3" font-family="Times,serif" font-size="14.00">node&#45;red server</text>
</g>
<!-- Browser_1&#45;&gt;NR_1 -->
<g id="edge1" class="edge"><title>Browser_1&#45;&gt;NR_1</title>
<path fill="none" stroke="black" d="M77.0843,-159.697C76.2886,-151.983 76.0621,-142.712 76.4047,-134.112"/>
<polygon fill="black" stroke="black" points="79.8984,-134.324 77.105,-124.104 72.9154,-133.836 79.8984,-134.324"/>
</g>
<!-- NR_1&#45;&gt;Browser_1 -->
<g id="edge2" class="edge"><title>NR_1&#45;&gt;Browser_1</title>
<path fill="none" stroke="black" d="M88.895,-124.104C89.7005,-131.791 89.9369,-141.054 89.604,-149.665"/>
<polygon fill="black" stroke="black" points="86.1085,-149.48 88.9157,-159.697 93.0921,-149.96 86.1085,-149.48"/>
</g>
<!-- SC_1 -->
<g id="node3" class="node"><title>SC_1</title>
<polygon fill="none" stroke="black" points="149.25,-52 16.75,-52 16.75,-16 149.25,-16 149.25,-52"/>
<text text-anchor="middle" x="83" y="-30.3" font-family="Times,serif" font-size="14.00">SuperCollider server</text>
</g>
<!-- NR_1&#45;&gt;SC_1 -->
<g id="edge3" class="edge"><title>NR_1&#45;&gt;SC_1</title>
<path fill="none" stroke="black" d="M77.0843,-87.6966C76.2886,-79.9827 76.0621,-70.7125 76.4047,-62.1124"/>
<polygon fill="black" stroke="black" points="79.8984,-62.3243 77.105,-52.1043 72.9154,-61.8356 79.8984,-62.3243"/>
</g>
<!-- SC_2 -->
<g id="node6" class="node"><title>SC_2</title>
<polygon fill="none" stroke="black" points="307.25,-52 174.75,-52 174.75,-16 307.25,-16 307.25,-52"/>
<text text-anchor="middle" x="241" y="-30.3" font-family="Times,serif" font-size="14.00">SuperCollider server</text>
</g>
<!-- NR_1&#45;&gt;SC_2 -->
<g id="edge9" class="edge"><title>NR_1&#45;&gt;SC_2</title>
<path fill="none" stroke="black" d="M121.651,-87.8761C143.251,-78.3066 170.351,-66.3001 193.266,-56.1478"/>
<polygon fill="black" stroke="black" points="194.749,-59.319 202.474,-52.0683 191.914,-52.919 194.749,-59.319"/>
</g>
<!-- SC_1&#45;&gt;NR_1 -->
<g id="edge4" class="edge"><title>SC_1&#45;&gt;NR_1</title>
<path fill="none" stroke="black" stroke-dasharray="1,5" d="M88.895,-52.1043C89.7005,-59.7913 89.9369,-69.0537 89.604,-77.6651"/>
<polygon fill="black" stroke="black" points="86.1085,-77.4805 88.9157,-87.6966 93.0921,-77.9597 86.1085,-77.4805"/>
</g>
<!-- Browser_2 -->
<g id="node4" class="node"><title>Browser_2</title>
<polygon fill="none" stroke="black" points="273,-196 209,-196 209,-160 273,-160 273,-196"/>
<text text-anchor="middle" x="241" y="-174.3" font-family="Times,serif" font-size="14.00">Browser</text>
</g>
<!-- NR_2 -->
<g id="node5" class="node"><title>NR_2</title>
<polygon fill="none" stroke="black" points="293,-124 189,-124 189,-88 293,-88 293,-124"/>
<text text-anchor="middle" x="241" y="-102.3" font-family="Times,serif" font-size="14.00">node&#45;red server</text>
</g>
<!-- Browser_2&#45;&gt;NR_2 -->
<g id="edge5" class="edge"><title>Browser_2&#45;&gt;NR_2</title>
<path fill="none" stroke="black" d="M235.084,-159.697C234.289,-151.983 234.062,-142.712 234.405,-134.112"/>
<polygon fill="black" stroke="black" points="237.898,-134.324 235.105,-124.104 230.915,-133.836 237.898,-134.324"/>
</g>
<!-- NR_2&#45;&gt;Browser_2 -->
<g id="edge6" class="edge"><title>NR_2&#45;&gt;Browser_2</title>
<path fill="none" stroke="black" d="M246.895,-124.104C247.701,-131.791 247.937,-141.054 247.604,-149.665"/>
<polygon fill="black" stroke="black" points="244.109,-149.48 246.916,-159.697 251.092,-149.96 244.109,-149.48"/>
</g>
<!-- NR_2&#45;&gt;SC_2 -->
<g id="edge7" class="edge"><title>NR_2&#45;&gt;SC_2</title>
<path fill="none" stroke="black" d="M235.084,-87.6966C234.289,-79.9827 234.062,-70.7125 234.405,-62.1124"/>
<polygon fill="black" stroke="black" points="237.898,-62.3243 235.105,-52.1043 230.915,-61.8356 237.898,-62.3243"/>
</g>
<!-- SC_2&#45;&gt;NR_2 -->
<g id="edge8" class="edge"><title>SC_2&#45;&gt;NR_2</title>
<path fill="none" stroke="black" stroke-dasharray="1,5" d="M246.895,-52.1043C247.701,-59.7913 247.937,-69.0537 247.604,-77.6651"/>
<polygon fill="black" stroke="black" points="244.109,-77.4805 246.916,-87.6966 251.092,-77.9597 244.109,-77.4805"/>
</g>
</g>
</svg>
