<?xml version="1.0" encoding="UTF-8" standalone="no"?>
<!DOCTYPE svg PUBLIC "-//W3C//DTD SVG 1.1//EN"
 "http://www.w3.org/Graphics/SVG/1.1/DTD/svg11.dtd">
<!-- Generated by graphviz version 2.36.0 (20140111.2315)
 -->
<!-- Title: G Pages: 1 -->
<svg width="140pt" height="188pt"
 viewBox="0.00 0.00 140.00 188.00" xmlns="http://www.w3.org/2000/svg" xmlns:xlink="http://www.w3.org/1999/xlink">
<g id="graph0" class="graph" transform="scale(1 1) rotate(0) translate(4 184)">
<title>G</title>
<polygon fill="white" stroke="none" points="-4,4 -4,-184 136,-184 136,4 -4,4"/>
<!-- Browser -->
<g id="node1" class="node"><title>Browser</title>
<polygon fill="none" stroke="black" points="98,-180 34,-180 34,-144 98,-144 98,-180"/>
<text text-anchor="middle" x="66" y="-158.3" font-family="Times,serif" font-size="14.00">Browser</text>
</g>
<!-- NR -->
<g id="node2" class="node"><title>NR</title>
<polygon fill="none" stroke="black" points="118,-108 14,-108 14,-72 118,-72 118,-108"/>
<text text-anchor="middle" x="66" y="-86.3" font-family="Times,serif" font-size="14.00">node&#45;red server</text>
</g>
<!-- Browser&#45;&gt;NR -->
<g id="edge1" class="edge"><title>Browser&#45;&gt;NR</title>
<path fill="none" stroke="black" d="M60.0843,-143.697C59.2886,-135.983 59.0621,-126.712 59.4047,-118.112"/>
<polygon fill="black" stroke="black" points="62.8984,-118.324 60.105,-108.104 55.9154,-117.836 62.8984,-118.324"/>
</g>
<!-- NR&#45;&gt;Browser -->
<g id="edge2" class="edge"><title>NR&#45;&gt;Browser</title>
<path fill="none" stroke="black" d="M71.895,-108.104C72.7005,-115.791 72.9369,-125.054 72.604,-133.665"/>
<polygon fill="black" stroke="black" points="69.1085,-133.48 71.9157,-143.697 76.0921,-133.96 69.1085,-133.48"/>
</g>
<!-- SC -->
<g id="node3" class="node"><title>SC</title>
<polygon fill="none" stroke="black" points="132.25,-36 -0.25,-36 -0.25,-0 132.25,-0 132.25,-36"/>
<text text-anchor="middle" x="66" y="-14.3" font-family="Times,serif" font-size="14.00">SuperCollider server</text>
</g>
<!-- NR&#45;&gt;SC -->
<g id="edge3" class="edge"><title>NR&#45;&gt;SC</title>
<path fill="none" stroke="black" d="M60.0843,-71.6966C59.2886,-63.9827 59.0621,-54.7125 59.4047,-46.1124"/>
<polygon fill="black" stroke="black" points="62.8984,-46.3243 60.105,-36.1043 55.9154,-45.8356 62.8984,-46.3243"/>
</g>
<!-- SC&#45;&gt;NR -->
<g id="edge4" class="edge"><title>SC&#45;&gt;NR</title>
<path fill="none" stroke="black" stroke-dasharray="1,5" d="M71.895,-36.1043C72.7005,-43.7913 72.9369,-53.0537 72.604,-61.6651"/>
<polygon fill="black" stroke="black" points="69.1085,-61.4805 71.9157,-71.6966 76.0921,-61.9597 69.1085,-61.4805"/>
</g>
</g>
</svg>
